<?xml version="1.0" encoding="UTF-8" standalone="no"?><!DOCTYPE svg PUBLIC "-//W3C//DTD SVG 1.1//EN" "http://www.w3.org/Graphics/SVG/1.1/DTD/svg11.dtd"><svg width="100%" height="100%" viewBox="0 0 1086 707" version="1.1" xmlns="http://www.w3.org/2000/svg" xmlns:xlink="http://www.w3.org/1999/xlink" xml:space="preserve" xmlns:serif="http://www.serif.com/" style="fill-rule:evenodd;clip-rule:evenodd;stroke-linejoin:round;stroke-miterlimit:2;"><rect id="v3" x="0" y="0" width="1085.526" height="706.841" style="fill:none;"/><path d="M886.005,526.146c0,7.487 -0.814,18.717 -2.441,33.691c-1.628,14.974 -2.441,26.367 -2.441,34.18c0,7.813 -0.163,-13.899 -0.488,2.865c-0.326,16.764 -0.488,29.215 -0.488,37.354c0,8.138 -5.371,12.207 -16.113,12.207c-3.906,0 -19.206,-3.092 -45.898,-9.277c-29.622,-6.51 -84.961,-9.766 -166.016,-9.766c-25.065,0 -62.663,1.383 -112.793,4.15c-50.13,2.767 -87.402,4.15 -111.816,4.15c-8.464,0 -18.184,-4.069 -19.16,-12.207c-0.977,-11.068 1.582,6.493 -2.324,-15.316c-8.138,-33.203 -12.207,-52.246 -12.207,-57.129c0,-7.161 13.672,-12.533 41.016,-16.113c31.901,-4.232 52.409,-10.091 61.523,-17.578c32.878,-27.669 66.569,-62.663 101.074,-104.98c43.945,-53.385 69.918,-117.424 69.918,-144.117c0,-23.112 -8.382,-42.562 -25.146,-58.35c-16.764,-15.788 -36.702,-23.682 -59.814,-23.682c-26.042,0 -55.921,9.208 -81.637,19.625c-17.253,6.51 -14.319,8.951 -33.199,21.32c-15.951,10.091 -24.74,15.137 -26.367,15.137c-11.068,0 -16.602,-13.021 -16.602,-39.062c0,-20.182 -0.814,-34.831 -2.441,-43.945c-0.651,-4.232 -3.092,-13.021 -7.324,-26.367c-3.906,-11.393 -5.859,-19.857 -5.859,-25.391c0,-4.232 2.767,-8.301 8.301,-12.207c27.018,-19.206 42.151,-27.342 87.398,-38.41c40.365,-9.766 79.59,-14.648 117.676,-14.648c61.849,0 88.607,13.672 130.273,41.016c49.154,31.901 73.73,77.311 73.73,136.23c0,78.451 -34.408,190.085 -153.223,294.902c84.31,-4.232 150.391,-6.348 198.242,-6.348c9.766,0 14.648,6.022 14.648,18.066Z" style="fill:#283618;fill-rule:nonzero;stroke:#070707;stroke-width:4.17px;"/><g><path d="M355.395,286.764c0.465,14.203 -0.398,43.307 1.832,60.749c1.924,15.049 4.633,30.678 7.365,44.357c3.907,19.568 8.626,41.617 15.334,62c5.362,16.292 12.526,31.409 17.652,44.157c3.853,9.58 8.57,19.214 13.545,28.274c6.042,11.003 13.866,25.794 22.708,37.742c4.215,5.696 17.321,24.521 18.608,26.372c0.068,0.098 0.139,0.193 0.214,0.285c1.683,2.085 21.794,26.997 22.959,28.44c0.064,0.08 0.129,0.16 0.195,0.239c0.741,0.882 4.29,5.058 9.745,10.428c4.232,4.165 9.462,9.564 14.396,14.479c7.57,7.542 15.445,14.343 19.308,18.519" style="fill:none;stroke:#bc6c25;stroke-width:4.17px;stroke-linecap:round;stroke-miterlimit:1.5;"/><path d="M418.628,442.042c4.279,-1.592 8.764,22.771 8.184,32.6c-0.565,9.595 -9.399,20.126 -11.66,26.372c-1.278,3.53 0.037,11.249 -1.906,11.099c-1.943,-0.149 -7.736,-7.343 -9.754,-11.996c-2.018,-4.653 -3.707,-10.729 -2.354,-15.92c2.523,-9.679 13.211,-40.562 17.49,-42.155Z" style="fill:#dda15e;stroke:#bc6c25;stroke-width:4.17px;stroke-linecap:round;stroke-miterlimit:1.5;"/><path d="M394.188,467.267c1.812,-0.355 1.56,-7.993 3.588,-11.436c2.224,-3.774 7.553,-6.774 9.754,-11.211c2.28,-4.597 4.008,-10.758 3.924,-16.369c-0.112,-7.512 -1.252,-26.963 -4.597,-28.701c-3.345,-1.738 -11.852,11.161 -15.472,18.274c-3.793,7.456 -6.54,19.769 -7.287,26.459c-0.517,4.625 1.121,9.847 2.803,13.678c1.584,3.607 5.475,9.66 7.287,9.305Z" style="fill:#dda15e;stroke:#bc6c25;stroke-width:4.17px;stroke-linecap:round;stroke-miterlimit:1.5;"/><path d="M378.716,421.525c3.868,0.934 12.825,-13.771 16.481,-20.517c3.286,-6.063 5.075,-13.071 5.455,-19.956c0.422,-7.642 1.013,-25.356 -2.924,-25.898c-3.936,-0.542 -16.404,15.939 -20.694,22.647c-3.288,5.142 -5.28,11.503 -5.045,17.602c0.28,7.287 2.859,25.188 6.727,26.122Z" style="fill:#dda15e;stroke:#bc6c25;stroke-width:4.17px;stroke-linecap:round;stroke-miterlimit:1.5;"/><path d="M368.626,374.213c4.167,-1.009 16.163,-14.388 20.741,-22.311c4.354,-7.535 5.624,-18.312 6.727,-25.225c0.853,-5.351 3.908,-17.191 -0.112,-16.256c-4.02,0.934 -18.742,13.939 -24.011,21.862c-4.943,7.432 -7.048,18.686 -7.605,25.674c-0.445,5.584 0.093,17.265 4.26,16.256Z" style="fill:#dda15e;stroke:#bc6c25;stroke-width:4.17px;stroke-linecap:round;stroke-miterlimit:1.5;"/><path d="M362.347,327.35c2.616,0.318 9.262,-7.917 13.566,-12.22c4.84,-4.84 12.431,-9.833 15.472,-16.817c3.636,-8.352 9.894,-31.149 6.343,-33.298c-3.55,-2.149 -21.393,12.37 -27.645,20.405c-6.039,7.761 -8.577,20.816 -9.866,27.804c-0.864,4.683 -0.486,13.809 2.13,14.126Z" style="fill:#dda15e;stroke:#bc6c25;stroke-width:4.17px;stroke-linecap:round;stroke-miterlimit:1.5;"/><path d="M353.042,279.702c3.812,-0.447 10.972,-9.333 14.126,-14.901c3.142,-5.546 4.802,-12.135 4.802,-18.508c0,-7.177 -3.254,-18.069 -4.802,-24.553c-1.164,-4.875 -0.654,-15.957 -4.485,-14.35c-3.831,1.607 -14.874,16.649 -18.499,23.992c-3,6.077 -3.27,14.052 -3.251,20.068c0.017,5.46 1.345,11.323 3.363,16.032c1.973,4.604 4.933,12.667 8.745,12.22Z" style="fill:#dda15e;stroke:#bc6c25;stroke-width:4.17px;stroke-linecap:round;stroke-miterlimit:1.5;"/><path d="M316.269,258.176c4.223,0.523 19.6,20.59 24.664,26.907c2.584,3.224 4.345,7.1 5.719,10.996c1.607,4.559 3.569,11.146 3.924,16.359c0.34,4.998 0.86,14.359 -1.794,14.92c-2.653,0.561 -9.625,-7.463 -14.126,-11.557c-4.727,-4.299 -11.062,-8.595 -14.238,-14.238c-3.177,-5.643 -4.18,-12.916 -4.821,-19.62c-0.691,-7.231 -3.55,-24.291 0.673,-23.768Z" style="fill:#dda15e;stroke:#bc6c25;stroke-width:4.17px;stroke-linecap:round;stroke-miterlimit:1.5;"/><path d="M353.603,377.689c3.083,-0.299 1.271,-9.361 1.121,-13.678c-0.143,-4.126 -0.129,-8.549 -2.018,-12.22c-2.99,-5.811 -9.497,-16.022 -15.92,-22.647c-6.45,-6.652 -19.208,-16.968 -22.777,-17.265c-3.569,-0.297 0.602,10.357 1.364,15.481c0.844,5.68 0.685,13.045 3.7,18.602c3.476,6.408 11.398,14.556 17.153,19.844c5.167,4.748 14.294,12.183 17.378,11.884Z" style="fill:#dda15e;stroke:#bc6c25;stroke-width:4.17px;stroke-linecap:round;stroke-miterlimit:1.5;"/><path d="M364.236,426.57c3.158,-1.812 0.42,-15.086 -2.561,-21.75c-3.286,-7.343 -10.308,-15.896 -17.153,-22.311c-7.119,-6.671 -22.423,-19.825 -25.562,-17.714c-3.139,2.111 2.765,21.899 6.727,30.383c3.762,8.055 10.616,15.285 17.041,20.517c6.23,5.073 18.351,12.687 21.508,10.875Z" style="fill:#dda15e;stroke:#bc6c25;stroke-width:4.17px;stroke-linecap:round;stroke-miterlimit:1.5;"/><path d="M379.292,474.33c3.793,-1.084 -0.439,-11.755 -2.706,-17.041c-2.749,-6.409 -7.276,-15.968 -13.79,-21.414c-8.091,-6.764 -29.953,-20.012 -34.755,-19.171c-4.802,0.841 1.953,16.926 5.946,24.216c4.298,7.848 12.29,17.303 19.84,22.871c7.394,5.452 21.672,11.622 25.465,10.539Z" style="fill:#dda15e;stroke:#bc6c25;stroke-width:4.17px;stroke-linecap:round;stroke-miterlimit:1.5;"/><path d="M399.457,519.063c3.289,-1.121 -1.641,-9.149 -4.036,-13.005c-3.644,-5.867 -10.087,-16.706 -17.826,-22.198c-8.707,-6.18 -29.962,-15.964 -34.419,-14.88c-4.456,1.084 3.167,15.301 7.681,21.383c5.419,7.301 16.732,17.639 24.832,22.423c7.056,4.167 20.479,7.399 23.768,6.278Z" style="fill:#dda15e;stroke:#bc6c25;stroke-width:4.17px;stroke-linecap:round;stroke-miterlimit:1.5;"/></g><g><path d="M596.944,662.806c-7.346,-6.75 -22.039,-20.249 -35.035,-27.371c-17.846,-9.781 -47.495,-22.198 -72.041,-31.313c-27.517,-10.219 -61.907,-20.429 -93.063,-29.999c-37.627,-11.558 -99.887,-28.619 -132.696,-39.349c-21.819,-7.135 -45.254,-16.733 -64.159,-25.029c-16.829,-7.385 -33.346,-15.567 -49.268,-24.744c-16.021,-9.233 -36.58,-23.515 -46.86,-30.656" style="fill:none;stroke:#bc6c25;stroke-width:4.17px;stroke-linecap:round;stroke-miterlimit:1.5;"/><path d="M385.121,560.675c3.671,-0.013 -5.091,-5.46 -6.637,-8.79c-2.437,-5.247 -3.236,-16.23 -7.982,-22.692c-5.337,-7.265 -15.098,-15.427 -24.037,-20.898c-8.939,-5.471 -26.518,-14.792 -29.598,-11.929c-3.079,2.863 5.541,20.346 11.122,29.106c5.905,9.268 14.784,20.635 24.306,26.502c9.522,5.867 28.462,8.715 32.827,8.7Z" style="fill:#dda15e;stroke:#bc6c25;stroke-width:4.17px;stroke-linecap:round;stroke-miterlimit:1.5;"/><path d="M324.759,542.558c3.429,0 -5.367,-4.636 -6.727,-7.784c-2.227,-5.157 -1.763,-16.777 -6.637,-23.159c-6.144,-8.045 -21.855,-19.538 -30.226,-25.113c-6.012,-4.004 -17.848,-11.564 -20.001,-8.341c-2.153,3.222 2.174,19.517 7.086,27.676c5.68,9.436 17.579,22.817 26.997,28.938c8.53,5.543 25.711,7.784 29.508,7.784Z" style="fill:#dda15e;stroke:#bc6c25;stroke-width:4.17px;stroke-linecap:round;stroke-miterlimit:1.5;"/><path d="M266.729,525.473c3.037,0.677 -5.026,-4.132 -6.128,-7.042c-2.153,-5.688 -2.158,-19.044 -6.788,-27.087c-4.629,-8.042 -13.184,-15.247 -20.988,-21.167c-7.803,-5.92 -22.423,-17.25 -25.831,-14.35c-3.408,2.9 1.211,22.378 5.381,31.75c4.171,9.373 11.059,18.501 19.642,24.485c9.059,6.316 29.946,12.349 34.71,13.41Z" style="fill:#dda15e;stroke:#bc6c25;stroke-width:4.17px;stroke-linecap:round;stroke-miterlimit:1.5;"/><path d="M208.508,503.333c3.332,0.159 -3.872,-5.656 -4.783,-8.897c-1.754,-6.234 -1.658,-19.947 -5.74,-28.51c-4.082,-8.562 -12.07,-16.694 -18.751,-22.865c-6.27,-5.791 -17.747,-14.956 -21.334,-14.159c-3.588,0.797 -0.77,12.655 -0.191,18.943c0.606,6.585 0.372,14.511 3.827,20.569c4.337,7.606 14.366,19.246 22.195,25.065c7.134,5.303 21.446,9.695 24.778,9.854Z" style="fill:#dda15e;stroke:#bc6c25;stroke-width:4.17px;stroke-linecap:round;stroke-miterlimit:1.5;"/><path d="M153.69,477.381c1.531,-1.371 -5.23,-10.071 -5.932,-14.707c-0.659,-4.357 2.127,-8.719 1.722,-13.107c-0.478,-5.182 -1.792,-12.468 -4.592,-17.986c-3.221,-6.346 -9.535,-14.303 -14.733,-20.091c-4.905,-5.462 -13.426,-16.71 -16.455,-14.637c-3.03,2.073 -2.105,18.911 -1.722,27.075c0.348,7.416 0.36,15.447 4.018,21.908c4.433,7.829 16.296,19.808 22.578,25.065c4.204,3.518 13.585,7.851 15.116,6.479Z" style="fill:#dda15e;stroke:#bc6c25;stroke-width:4.17px;stroke-linecap:round;stroke-miterlimit:1.5;"/><path d="M97.74,452.916c1.856,-0.391 -2.026,-3.257 -2.583,-5.07c-1.116,-3.635 -2.79,-12.357 -4.114,-16.742c-0.992,-3.288 -1.497,-7.044 -3.827,-9.567c-5.31,-5.75 -18.416,-18.828 -28.031,-24.935c-8.971,-5.698 -25.687,-14.587 -29.658,-11.707c-3.97,2.88 2.049,19.888 5.836,28.988c3.875,9.312 10.779,20.521 17.412,26.883c6.031,5.785 14.893,9.264 22.387,11.289c7.271,1.965 19.246,1.563 22.578,0.861Z" style="fill:#dda15e;stroke:#bc6c25;stroke-width:4.17px;stroke-linecap:round;stroke-miterlimit:1.5;"/><path d="M144.714,492.714c-1.1,-3.556 -15.885,-13.697 -23.63,-17.508c-7.018,-3.453 -15.127,-4.417 -22.845,-5.358c-7.717,-0.941 -15.671,-0.99 -23.459,-0.287c-8.837,0.797 -29.801,0.686 -29.562,5.07c0.239,4.385 21.589,16.455 30.997,21.239c7.88,4.007 18.416,6.717 25.448,7.465c5.636,0.6 12.405,-1.844 16.742,-2.976c3.237,-0.845 6.068,-2.886 9.28,-3.819c4.385,-1.274 18.129,-0.271 17.029,-3.827Z" style="fill:#dda15e;stroke:#bc6c25;stroke-width:4.17px;stroke-linecap:round;stroke-miterlimit:1.5;"/><path d="M201.255,519.884c-2.599,-3.109 -22.82,-11.704 -30.71,-14.446c-5.274,-1.833 -11.062,-2.424 -16.63,-2.008c-8.116,0.606 -23.389,3.571 -32.066,5.644c-6.846,1.635 -21.526,3.014 -19.995,6.793c1.531,3.779 20.137,12.357 29.179,15.881c7.958,3.101 18.555,4.757 25.076,5.262c4.729,0.366 9.695,-0.362 14.053,-2.236c5.005,-2.153 10.795,-8.198 15.977,-10.68c4.717,-2.259 17.715,-1.1 15.116,-4.209Z" style="fill:#dda15e;stroke:#bc6c25;stroke-width:4.17px;stroke-linecap:round;stroke-miterlimit:1.5;"/><path d="M259.326,542.367c-3.332,-2.727 -22.53,-9.79 -30.519,-11.767c-5.634,-1.394 -11.648,-0.779 -17.412,-0.096c-5.868,0.696 -12.098,2.088 -17.795,4.27c-7.159,2.743 -19.851,9.931 -25.161,12.185c-2.095,0.89 -8.635,0.145 -6.697,1.339c3.572,2.2 19.676,9.312 28.127,11.863c7.288,2.2 15.833,3.412 22.578,3.444c6.061,0.029 12.379,-0.729 17.89,-3.253c6.059,-2.774 13.633,-10.396 18.464,-13.394c3.252,-2.018 13.486,-2.169 10.524,-4.592Z" style="fill:#dda15e;stroke:#bc6c25;stroke-width:4.17px;stroke-linecap:round;stroke-miterlimit:1.5;"/><path d="M320.02,561.692c-2.184,-2.408 -18.831,-8.212 -25.448,-10.045c-4.589,-1.272 -9.534,-1.581 -14.255,-0.957c-6.266,0.829 -16.057,3.125 -23.343,5.932c-7.189,2.769 -14.829,7.829 -20.378,10.906c-4.362,2.419 -13.665,5.31 -12.915,7.558c0.749,2.248 11.423,4.618 17.412,5.932c7.925,1.738 22.148,4.401 30.136,4.496c6.073,0.073 12.434,-1.066 17.795,-3.922c6.075,-3.237 13.489,-12.182 18.656,-15.498c3.675,-2.359 14.526,-1.993 12.341,-4.401Z" style="fill:#dda15e;stroke:#bc6c25;stroke-width:4.17px;stroke-linecap:round;stroke-miterlimit:1.5;"/><path d="M380.484,578.625c-1.371,-1.929 -11.927,-6.735 -17.986,-8.515c-5.915,-1.737 -12.219,-2.596 -18.369,-2.164c-7.032,0.494 -16.47,2.201 -23.821,5.129c-7.351,2.928 -14.877,8.869 -20.283,12.44c-4.203,2.777 -14.542,6.152 -12.15,8.99c2.392,2.838 19.405,6.665 26.501,8.036c5.261,1.017 10.728,0.566 16.073,0.191c5.453,-0.383 11.674,0.111 16.647,-2.487c6.713,-3.508 18.066,-14.956 23.63,-18.56c2.862,-1.853 11.13,-1.132 9.758,-3.061Z" style="fill:#dda15e;stroke:#bc6c25;stroke-width:4.17px;stroke-linecap:round;stroke-miterlimit:1.5;"/></g><g id="Fork"><path d="M651.825,650.376c-0.422,1.179 -0.093,2.495 0.833,3.338c2.079,1.891 5.938,5.4 9.415,8.562c4.641,4.221 10.695,6.55 16.968,6.53c1.14,-0.004 2.296,-0.007 3.419,-0.011c5.534,-0.018 10.878,-2.022 15.059,-5.648c14.022,-12.159 46.155,-40.024 49.109,-42.586c0.145,-0.126 0.284,-0.261 0.414,-0.403c1.679,-1.835 13.643,-14.914 14.297,-15.629c0.019,-0.02 0.037,-0.041 0.055,-0.061c0.752,-0.85 16.789,-18.973 18.323,-20.706c0.078,-0.089 0.16,-0.174 0.244,-0.257c1.542,-1.511 16.641,-16.312 17.559,-17.212c0.029,-0.029 0.058,-0.057 0.086,-0.087c1.072,-1.103 22.042,-22.688 24.498,-25.216c0.156,-0.161 0.309,-0.325 0.458,-0.492c1.511,-1.69 10.246,-11.462 13.207,-14.774c0.653,-0.731 1.356,-1.416 2.102,-2.052c3.153,-2.684 11.959,-10.179 13.294,-11.316c0.114,-0.097 0.232,-0.188 0.354,-0.275c1.678,-1.187 14.438,-10.212 19.157,-13.549c1.161,-0.821 2.413,-1.505 3.732,-2.038c3.093,-1.251 9.115,-3.686 13.052,-5.278c2.492,-1.008 5.154,-1.53 7.842,-1.539c8.062,-0.026 26.487,-0.086 40.397,-0.131c11.435,-0.037 22.645,-3.181 32.431,-9.095c6.39,-3.862 13.502,-8.159 18.452,-11.15c4.158,-2.513 7.902,-5.654 11.1,-9.311c6.28,-7.183 16.922,-19.357 20.913,-23.922c1.048,-1.199 2.008,-2.471 2.872,-3.808c4.476,-6.925 19.08,-29.517 20.638,-31.928c0.09,-0.139 0.173,-0.283 0.249,-0.43c0.991,-1.931 8.203,-15.974 11.027,-21.472c0.742,-1.444 1.126,-3.046 1.121,-4.67c-0,-0.001 -0,-0.002 -0,-0.003c-0.002,-0.474 -0.263,-0.909 -0.681,-1.132c-0.418,-0.223 -0.925,-0.199 -1.32,0.064c-1.355,0.901 -3.116,2.071 -4.326,2.876c-0.933,0.62 -1.766,1.377 -2.472,2.247c-4.965,6.114 -25.656,31.594 -27.004,33.255c-0.046,0.057 -0.093,0.112 -0.142,0.167c-1.173,1.322 -16.167,18.216 -17.898,20.166c-0.108,0.122 -0.223,0.239 -0.342,0.35c-1.527,1.414 -12.43,11.51 -19.142,17.726c-2.965,2.746 -7.558,2.701 -10.468,-0.102c-0,-0 -0.001,-0.001 -0.001,-0.001c-1.359,-1.309 -2.136,-3.11 -2.155,-4.997c-0.019,-1.887 0.722,-3.703 2.055,-5.039c10.936,-10.958 36.028,-36.1 38.859,-38.937c0.174,-0.174 0.335,-0.361 0.481,-0.559c2.254,-3.048 21.121,-28.566 23.89,-32.31c0.225,-0.304 0.415,-0.633 0.565,-0.98c0.677,-1.559 2.734,-6.292 4.275,-9.839c0.405,-0.932 0.312,-2.005 -0.246,-2.854c-0.559,-0.849 -1.508,-1.358 -2.524,-1.355c-0.145,0 -0.275,0.001 -0.385,0.001c-0.249,0.001 -0.484,0.118 -0.635,0.317c-1.262,1.664 -7.129,9.403 -8.174,10.783c-0.106,0.14 -0.22,0.275 -0.341,0.403c-2.035,2.165 -20.551,21.87 -21.328,22.698c-0.017,0.018 -0.034,0.036 -0.051,0.053c-0.791,0.817 -19.642,20.296 -21.697,22.419c-0.121,0.125 -0.248,0.243 -0.381,0.355c-1.885,1.58 -16.659,13.964 -24.9,20.873c-3.155,2.645 -7.781,2.546 -10.82,-0.231c-0,-0 -0.001,-0.001 -0.001,-0.001c-1.347,-1.231 -2.108,-2.976 -2.095,-4.8c0.014,-1.825 0.802,-3.558 2.167,-4.768c8.134,-7.208 22.896,-20.29 25.098,-22.241c0.185,-0.164 0.357,-0.341 0.516,-0.531c2.086,-2.489 17.199,-20.523 18.718,-22.335c0.082,-0.098 0.16,-0.199 0.234,-0.303c1.168,-1.633 11.231,-15.7 16.403,-22.93c2.017,-2.819 3.605,-5.921 4.712,-9.206c0.115,-0.341 0.233,-0.69 0.352,-1.045c0.421,-1.248 -0.039,-2.623 -1.125,-3.367c-1.086,-0.744 -2.535,-0.676 -3.546,0.168c-0.053,0.044 -0.082,0.068 -0.082,0.068c0,-0 -21.72,24.48 -22.944,25.86c-0.036,0.04 -0.072,0.08 -0.11,0.12c-1.045,1.104 -16.45,17.372 -17.396,18.37c-0.03,0.032 -0.06,0.064 -0.09,0.097c-0.819,0.912 -12.774,14.224 -14.733,16.405c-0.18,0.201 -0.376,0.386 -0.586,0.555c-1.5,1.207 -8.03,6.459 -12.719,10.231c-2.918,2.347 -7.06,2.403 -10.041,0.136c-0.001,-0 -0.001,-0.001 -0.002,-0.001c-1.27,-0.966 -2.064,-2.431 -2.179,-4.023c-0.115,-1.592 0.459,-3.156 1.576,-4.295c6.372,-6.496 17.477,-17.819 18.299,-18.657c0.032,-0.033 0.064,-0.066 0.095,-0.1c1.132,-1.22 22.415,-24.151 24.398,-26.287c0.098,-0.106 0.192,-0.216 0.281,-0.331c1.322,-1.699 12.075,-15.517 14.445,-18.562c0.306,-0.393 0.551,-0.829 0.728,-1.294c0.794,-2.088 3.176,-8.356 4.635,-12.194c0.268,-0.706 0.172,-1.498 -0.258,-2.119c-0.43,-0.621 -1.137,-0.99 -1.892,-0.988c-0.138,0 -0.263,0.001 -0.367,0.001c-0.223,0.001 -0.435,0.094 -0.586,0.259c-2.009,2.185 -16.147,17.561 -16.976,18.463c-0.025,0.028 -0.051,0.055 -0.077,0.082c-0.909,0.946 -17.469,18.163 -19.465,20.239c-0.131,0.136 -0.269,0.265 -0.415,0.385c-2.63,2.178 -28.155,23.314 -28.907,23.937c-0.011,0.009 -0.023,0.019 -0.034,0.028c-0.454,0.37 -9.822,7.988 -10.623,8.639c-0.036,0.03 -0.072,0.06 -0.108,0.09c-0.839,0.722 -11.398,9.815 -17.5,15.069c-2.828,2.435 -5.161,5.391 -6.872,8.706c-1.735,3.362 -3.993,7.737 -5.629,10.907c-1.42,2.752 -2.272,5.761 -2.506,8.848c-0.307,4.053 -0.755,9.957 -1.096,14.467c-0.323,4.267 -1.653,8.398 -3.88,12.052c-0.761,1.249 -1.546,2.537 -2.233,3.665c-1.348,2.213 -3.243,4.041 -5.502,5.31c-3.802,2.135 -9.539,5.356 -10.705,6.011c-0.141,0.079 -0.278,0.165 -0.41,0.257c-2.071,1.443 -19.627,13.674 -19.907,13.869c-0.002,0.002 -0.005,0.003 -0.007,0.005c-0.26,0.18 -15.433,10.714 -16.797,11.661c-0.065,0.045 -0.129,0.092 -0.192,0.14c-1.111,0.853 -11.674,8.957 -12.813,9.831c-0.066,0.051 -0.131,0.103 -0.195,0.157c-1.122,0.954 -11.775,10.011 -12.428,10.566c-0.021,0.018 -0.042,0.035 -0.063,0.053c-0.864,0.711 -19.089,15.695 -19.541,16.067c-0.006,0.005 -0.011,0.009 -0.017,0.014c-0.433,0.359 -17.205,14.275 -18.846,15.636c-0.086,0.071 -0.169,0.145 -0.25,0.222c-1.552,1.473 -17.478,16.595 -18.504,17.568c-0.035,0.033 -0.07,0.065 -0.105,0.097c-1.235,1.107 -23.587,21.147 -26.649,23.892c-0.231,0.207 -0.465,0.411 -0.701,0.613c-2.366,2.016 -15.849,13.508 -18.03,15.367c-0.199,0.169 -0.4,0.336 -0.604,0.499c-2.727,2.181 -22.995,18.392 -32.193,25.748c-2.953,2.362 -5.191,5.498 -6.465,9.058c-0.011,0.03 -0.021,0.06 -0.032,0.089Z" style="fill:#dedbdb;stroke:#070707;stroke-width:4.17px;stroke-linecap:round;stroke-miterlimit:1.5;"/></g></svg>